<?xml version="1.0" encoding="UTF-8" standalone="no"?>
<svg
   id="Layer_1"
   data-name="Layer 1"
   viewBox="0 0 500 500"
   version="1.1"
   sodipodi:docname="6623b7159176f-Electron-Electronjs.svg"
   width="500"
   height="500"
   inkscape:version="1.4.2 (f4327f4, 2025-05-13)"
   xmlns:inkscape="http://www.inkscape.org/namespaces/inkscape"
   xmlns:sodipodi="http://sodipodi.sourceforge.net/DTD/sodipodi-0.dtd"
   xmlns="http://www.w3.org/2000/svg"
   xmlns:svg="http://www.w3.org/2000/svg">
  <sodipodi:namedview
     id="namedview14"
     pagecolor="#ffffff"
     bordercolor="#000000"
     borderopacity="0.25"
     inkscape:showpageshadow="2"
     inkscape:pageopacity="0.0"
     inkscape:pagecheckerboard="0"
     inkscape:deskcolor="#d1d1d1"
     inkscape:zoom="1.132844"
     inkscape:cx="17.213315"
     inkscape:cy="270.558"
     inkscape:window-width="1920"
     inkscape:window-height="991"
     inkscape:window-x="-9"
     inkscape:window-y="-9"
     inkscape:window-maximized="1"
     inkscape:current-layer="Layer_1" />
  <defs
     id="defs1">
    <style
       id="style1">
      .cls-1 {
        fill: #47848f;
      }

      .cls-2 {
        fill-rule: evenodd;
      }

      .cls-2, .cls-3 {
        fill: #a2ecfb;
      }

      .cls-4 {
        fill: none;
        stroke: #a2ecfb;
        stroke-linecap: round;
        stroke-width: 3.6px;
      }

      .cls-5 {
        fill: #2f3242;
      }
    </style>
  </defs>
  <g
     id="g15"
     transform="translate(0,6.8384757)">
    <path
       class="cls-1"
       d="m 61.249825,475.24356 h 26.42936 c 0.7541,0 1.38939,-0.63529 1.38939,-1.38938 0,-0.7541 -0.63529,-1.38939 -1.38939,-1.38939 h -24.92634 v -16.24913 h 22.03394 c 0.75409,0 1.38939,-0.63529 1.38939,-1.38939 0,-0.75409 -0.6353,-1.38938 -1.38939,-1.38938 h -22.03394 v -15.90307 h 24.6371 c 0.7541,0 1.38939,-0.6353 1.38939,-1.38939 0,-0.75409 -0.63529,-1.38939 -1.38939,-1.38939 h -26.14012 c -0.81091,0 -1.50302,0.69211 -1.50302,1.50302 v 37.47216 c 0,0.8109 0.69211,1.50301 1.50302,1.50301 v 0 z m 46.164875,-1.50301 c 0,0.8109 0.69211,1.50301 1.50302,1.50301 h 24.11544 c 0.75409,0 1.38939,-0.63529 1.38939,-1.38938 0,-0.7541 -0.6353,-1.38939 -1.38939,-1.38939 H 110.42074 V 436.0308 c 0,-0.81091 -0.69211,-1.50302 -1.50302,-1.50302 -0.81091,0 -1.50302,0.69211 -1.50302,1.50302 v 37.70458 0 z m 46.22169,1.50301 h 26.42936 c 0.75409,0 1.38939,-0.63529 1.38939,-1.38938 0,-0.7541 -0.6353,-1.38939 -1.38939,-1.38939 h -24.92634 v -16.24913 h 22.03394 c 0.75409,0 1.38938,-0.63529 1.38938,-1.38939 0,-0.75409 -0.63529,-1.38938 -1.38938,-1.38938 h -22.03394 v -15.90307 h 24.6371 c 0.75409,0 1.38939,-0.6353 1.38939,-1.38939 0,-0.75409 -0.6353,-1.38939 -1.38939,-1.38939 h -26.14012 c -0.81091,0 -1.50302,0.69211 -1.50302,1.50302 v 37.47216 c 0,0.8109 0.69211,1.50301 1.50302,1.50301 v 0 z m 64.4955,0.69212 c 6.76616,0 11.2184,-2.48437 15.32459,-6.30132 0.23242,-0.23242 0.46485,-0.57848 0.46485,-1.04333 0,-0.75409 -0.69211,-1.4462 -1.44621,-1.4462 -0.46485,0 -0.8109,0.23242 -1.04333,0.46485 -3.81694,3.64133 -7.6907,5.6092 -13.18627,5.6092 -9.65857,0 -17.11685,-7.97994 -17.11685,-18.217 v -0.11363 c 0,-10.18023 7.34465,-18.0982 17.06003,-18.0982 5.66602,0 9.53978,2.19513 12.89704,5.26315 0.23242,0.23243 0.63529,0.40287 1.04333,0.40287 0.8109,0 1.55983,-0.69211 1.55983,-1.50302 0,-0.52166 -0.28924,-0.92453 -0.57848,-1.21377 -3.93057,-3.3521 -8.15555,-5.66602 -14.85974,-5.66602 -11.68325,0 -20.24168,9.48296 -20.24168,20.93379 v 0.11363 c 0,11.62128 8.55843,20.82016 20.12289,20.82016 v 0 z m 44.48624,-1.96787 c 0,0.8109 0.69211,1.50302 1.50302,1.50302 0.81091,0 1.50302,-0.69212 1.50302,-1.50302 v -36.43399 h 12.95385 c 0.75409,0 1.38938,-0.6353 1.38938,-1.38939 0,-0.75409 -0.63529,-1.38939 -1.38938,-1.38939 h -28.91374 c -0.75409,0 -1.38939,0.6353 -1.38939,1.38939 0,0.75409 0.6353,1.38939 1.38939,1.38939 h 12.95385 z m 35.17373,0 c 0,0.8109 0.69211,1.50302 1.50302,1.50302 0.8109,0 1.50301,-0.69212 1.50301,-1.50302 v -15.5002 h 13.24309 l 12.43219,16.19231 c 0.34605,0.46485 0.75409,0.81091 1.33257,0.81091 0.8109,0 1.55982,-0.7541 1.55982,-1.55984 0,-0.34605 -0.17561,-0.69211 -0.46485,-1.04333 l -11.50764,-14.92172 c 6.82298,-0.92454 11.85371,-4.79829 11.85371,-11.56446 v -0.11363 c 0,-2.89241 -1.15698,-5.6092 -3.06286,-7.51509 -2.42756,-2.42756 -6.42011,-3.99255 -11.39402,-3.99255 h -15.5002 c -0.81091,0 -1.50302,0.69211 -1.50302,1.50301 v 37.70459 0 z m 3.00603,-18.217 v -18.21699 h 13.82157 c 7.34465,0 11.62128,3.41407 11.62128,8.84766 v 0.11363 c 0,5.84163 -5.03072,9.25054 -11.79689,9.25054 h -13.64596 z m 66.23095,20.1797 c 12.26173,0 20.41212,-9.891 20.41212,-20.93379 v -0.11363 c 0,-11.04279 -8.03676,-20.82016 -20.29849,-20.82016 -12.26174,0 -20.41213,9.891 -20.41213,20.93379 v 0.11363 c 0,11.04279 8.03676,20.82016 20.2985,20.82016 z m 0.11363,-2.71679 c -10.00463,0 -17.29246,-8.21237 -17.29246,-18.217 v -0.11363 c 0,-10.00463 7.16903,-18.0982 17.17366,-18.0982 10.00463,0 17.29246,8.21237 17.29246,18.21699 v 0.11364 c 0,10.00462 -7.16904,18.0982 -17.17366,18.0982 z m 39.45552,0.8109 c 0,0.81091 0.63529,1.44621 1.4462,1.44621 0.8109,0 1.44619,-0.6353 1.44619,-1.44621 v -34.86899 l 27.81359,35.27703 c 0.46485,0.57848 0.92454,0.98135 1.50302,0.98135 h 0.23242 c 0.69212,0 1.21378,-0.57848 1.21378,-1.27059 v -38.16427 c 0,-0.81091 -0.63529,-1.44621 -1.4462,-1.44621 -0.81091,0 -1.4462,0.6353 -1.4462,1.44621 v 34.12006 L 410.0637,435.46265 c -0.40287,-0.52167 -0.86772,-0.86773 -1.50302,-0.86773 h -0.46485 c -0.81091,0 -1.50302,0.69212 -1.50302,1.50302 v 37.93701 0 z"
       id="path1"
       style="stroke-width:0.516501" />
    <g
       id="g14"
       transform="matrix(0.51650114,0,0,0.51650114,2.7379918,5.0880719)">
      <circle
         class="cls-5"
         cx="499.51001"
         cy="395.42001"
         r="385.17001"
         id="circle9" />
      <path
         class="cls-3"
         d="m 423.65,247.99 c 5.89,1.07 11.53,-2.83 12.6,-8.71 1.07,-5.89 -2.83,-11.53 -8.71,-12.6 z m -137.1,24.51 9.39,5.41 v 0 z m 1.95,104.48 c 2.97,5.19 9.59,6.99 14.78,4.02 5.19,-2.97 6.99,-9.59 4.02,-14.78 z m 52.69,34.97 c -4.02,-4.43 -10.87,-4.76 -15.3,-0.73 -4.43,4.02 -4.76,10.87 -0.73,15.3 l 16.04,-14.57 z m 96.63,90.01 -5.42,9.38 z m 259.82,47.03 c 4.94,-3.37 6.21,-10.11 2.84,-15.05 -3.37,-4.94 -10.11,-6.21 -15.05,-2.84 l 12.22,17.89 z M 427.54,226.67 c -33.52,-6.12 -64.74,-6.41 -90.68,-0.14 -25.99,6.28 -47.48,19.38 -59.69,40.56 l 18.77,10.82 c 8.39,-14.56 23.89,-24.97 46,-30.31 22.16,-5.35 50.17,-5.36 81.71,0.4 l 3.89,-21.31 z m -150.37,40.41 c -18.13,31.46 -10.7,71.4 11.33,109.89 l 18.8,-10.76 C 286.8,330.4 283.5,299.47 295.93,277.9 l -18.77,-10.82 z m 47.98,159.43 c 27.74,30.53 64.32,60 107.24,84.82 l 10.85,-18.76 C 402.06,468.76 367.29,440.66 341.19,411.94 Z m 107.24,84.82 c 51.13,29.57 103.51,48.06 149.78,54.77 45.88,6.66 87.5,1.97 115.47,-17.13 l -12.22,-17.89 c -21.45,14.65 -56.57,19.9 -100.13,13.58 -43.17,-6.27 -92.94,-23.69 -142.05,-52.09 z m 316.03,9.92 c 0,-20.91 -16.93,-37.89 -37.84,-37.89 v 21.67 c 8.92,0 16.18,7.25 16.18,16.22 h 21.67 z m -37.84,-37.89 c -20.92,0 -37.84,16.98 -37.84,37.89 h 21.67 c 0,-8.97 7.26,-16.22 16.18,-16.22 v -21.67 z m -37.84,37.89 c 0,20.91 16.93,37.89 37.84,37.89 v -21.67 c -8.92,0 -16.18,-7.25 -16.18,-16.22 h -21.67 z m 37.84,37.89 c 20.91,0 37.84,-16.98 37.84,-37.89 h -21.67 c 0,8.97 -7.26,16.22 -16.18,16.22 v 21.67 z"
         id="path9" />
      <path
         class="cls-3"
         d="m 664.94,403.74 c -3.86,4.57 -3.29,11.4 1.28,15.27 4.57,3.86 11.4,3.29 15.27,-1.28 z m 47.12,-130.88 -9.39,5.41 z m -89.13,-50.52 c -5.98,-0.08 -10.9,4.71 -10.97,10.69 -0.08,5.98 4.71,10.9 10.69,10.97 z m -57.57,27.92 c 5.85,-1.25 9.57,-7.01 8.32,-12.86 -1.26,-5.85 -7.02,-9.57 -12.86,-8.32 l 4.55,21.18 z m -127.33,39.08 5.42,9.38 z M 268.1,497.17 c 0.87,5.92 6.37,10.02 12.29,9.15 5.92,-0.87 10.02,-6.37 9.15,-12.29 z m 413.39,-79.44 c 21.95,-25.97 37.72,-52.83 45.23,-78.41 7.52,-25.62 6.91,-50.74 -5.27,-71.87 l -18.77,10.82 c 8.38,14.53 9.65,33.15 3.25,54.95 -6.41,21.85 -20.34,46.09 -40.99,70.52 z m 39.96,-150.27 c -17.84,-30.95 -55.18,-44.54 -98.51,-45.11 l -0.28,21.66 c 40.16,0.52 67.8,13.06 80.03,34.27 l 18.77,-10.82 z M 560.82,229.09 c -40.62,8.72 -84.84,25.8 -128.21,50.88 l 10.85,18.76 c 41.6,-24.06 83.72,-40.26 121.91,-48.45 l -4.55,-21.18 z m -128.21,50.88 c -52.64,30.44 -95.79,67.89 -124.78,105.79 -28.72,37.54 -44.74,77.15 -39.72,111.41 l 21.44,-3.14 c -3.77,-25.76 8.21,-59.44 35.49,-95.11 27.01,-35.3 67.86,-70.96 118.42,-100.2 l -10.85,-18.76 z"
         id="path10" />
      <path
         class="cls-3"
         d="m 409.73,535.22 c -2.01,-5.63 -8.21,-8.57 -13.85,-6.55 -5.63,2.01 -8.57,8.21 -6.55,13.85 l 20.4,-7.29 z m 177.43,55.35 c 3.08,-5.13 1.42,-11.78 -3.71,-14.86 -5.13,-3.08 -11.78,-1.42 -14.86,3.71 l 18.58,11.15 z m 6.06,-67.68 c -1.78,5.71 1.4,11.79 7.11,13.57 5.71,1.78 11.79,-1.4 13.57,-7.11 z M 622.19,395.83 H 611.36 Z M 530.55,145.84 c -5.47,-2.43 -11.87,0.03 -14.3,5.5 -2.43,5.47 0.03,11.87 5.5,14.3 z M 389.34,542.52 c 11.48,32.09 26.82,59.27 45.2,78.62 18.41,19.37 40.47,31.45 64.88,31.45 v -21.67 c -16.76,0 -33.5,-8.22 -49.17,-24.71 -15.7,-16.53 -29.71,-40.79 -40.51,-70.99 l -20.4,7.29 z m 110.08,110.07 c 35.42,0 65.65,-25.21 87.75,-62.02 l -18.58,-11.15 c -20.45,34.08 -44.92,51.51 -69.17,51.51 V 652.6 Z M 613.91,529.35 c 12.16,-38.92 19.12,-84.68 19.12,-133.52 h -21.67 c 0,46.86 -6.69,90.42 -18.13,127.06 z m 19.12,-133.52 c 0,-59.9 -10.47,-115.22 -28.21,-158.99 -17.58,-43.37 -43.05,-77.11 -74.27,-91 l -8.8,19.8 c 23.73,10.55 46.29,38.14 62.99,79.34 16.54,40.81 26.62,93.31 26.62,150.85 z"
         id="path11" />
      <path
         class="cls-4"
         d="m 737.59,521.25 c 0,-14.94 -12.09,-27.05 -27.01,-27.05 -14.92,0 -27.01,12.11 -27.01,27.05 0,14.94 12.09,27.05 27.01,27.05 14.92,0 27.01,-12.11 27.01,-27.05 z"
         id="path12" />
      <path
         class="cls-4"
         d="m 287.75,548.3 c 14.92,0 27.01,-12.11 27.01,-27.05 0,-14.94 -12.09,-27.05 -27.01,-27.05 -14.92,0 -27.01,12.11 -27.01,27.05 0,14.94 12.09,27.05 27.01,27.05 z"
         id="path13" />
      <ellipse
         class="cls-4"
         cx="499.41"
         cy="149.89"
         rx="27.01"
         ry="27.049999"
         id="ellipse13" />
      <path
         class="cls-2"
         d="m 504.63,420.01 c -13.34,2.89 -26.48,-5.6 -29.36,-18.96 -2.88,-13.36 5.59,-26.52 18.93,-29.41 13.34,-2.89 26.47,5.6 29.36,18.96 2.88,13.36 -5.59,26.52 -18.93,29.41 z"
         id="path14" />
    </g>
  </g>
</svg>
