<?xml version="1.0" encoding="UTF-8" standalone="no"?>
<svg
   width="599"
   height="500"
   viewBox="0 0 599 500"
   fill="none"
   version="1.1"
   id="svg5"
   sodipodi:docname="logo_light.C7Zm2ZoX.svg"
   inkscape:version="1.4.2 (f4327f4, 2025-05-13)"
   xmlns:inkscape="http://www.inkscape.org/namespaces/inkscape"
   xmlns:sodipodi="http://sodipodi.sourceforge.net/DTD/sodipodi-0.dtd"
   xmlns="http://www.w3.org/2000/svg"
   xmlns:svg="http://www.w3.org/2000/svg">
  <defs
     id="defs5" />
  <sodipodi:namedview
     id="namedview5"
     pagecolor="#ffffff"
     bordercolor="#000000"
     borderopacity="0.25"
     inkscape:showpageshadow="2"
     inkscape:pageopacity="0.0"
     inkscape:pagecheckerboard="0"
     inkscape:deskcolor="#d1d1d1"
     inkscape:zoom="1.0260417"
     inkscape:cx="93.076142"
     inkscape:cy="204.18274"
     inkscape:window-width="1920"
     inkscape:window-height="991"
     inkscape:window-x="-9"
     inkscape:window-y="-9"
     inkscape:window-maximized="1"
     inkscape:current-layer="svg5" />
  <path
     d="m 114.97299,498.50069 a 3.9875319,3.9875319 0 0 1 -2.71152,-1.06866 4.0194322,4.0194322 0 0 1 -1.05271,-2.71152 V 416.59678 H 84.412543 a 3.9875319,3.9875319 0 0 1 -2.71152,-1.05271 4.0194322,4.0194322 0 0 1 -1.03676,-2.71152 v -16.14153 c 0,-1.11651 0.35091,-2.00971 1.05271,-2.71152 a 3.9875319,3.9875319 0 0 1 2.71152,-1.05271 h 80.946897 c 1.10056,0 2.00972,0.35091 2.71152,1.05271 0.70181,0.70181 1.05271,1.59501 1.05271,2.71152 v 16.15748 c 0,1.11651 -0.3509,2.00972 -1.05271,2.71152 a 3.6685294,3.6685294 0 0 1 -2.71152,1.05271 h -26.79621 v 78.12373 c 0,1.00486 -0.33496,1.91401 -1.03676,2.71152 -0.70181,0.71776 -1.61096,1.06866 -2.71152,1.06866 h -19.85791 z m 51.08826,0 c -0.79751,0 -1.54716,-0.319 -2.24897,-0.90916 a 3.4292775,3.4292775 0 0 1 -0.90916,-2.26492 c 0,-0.6061 0.0478,-1.05271 0.1595,-1.35576 l 35.34549,-96.81727 c 0.319,-1.21221 0.957,-2.23302 1.96186,-3.03053 a 6.0610486,6.0610486 0 0 1 3.90778,-1.19626 h 22.26638 c 1.61097,0 2.91888,0.39876 3.92373,1.19626 1.00486,0.79751 1.64287,1.81832 1.94592,3.03053 l 35.21788,96.81727 0.30305,1.35576 a 3.1900256,3.1900256 0 0 1 -1.0527,2.26492 c -0.60611,0.60611 -1.35577,0.90916 -2.26492,0.90916 h -18.50215 c -2.40847,0 -4.01943,-1.06866 -4.81694,-3.17408 l -5.86965,-15.37592 h -40.17837 l -5.69419,15.35997 c -0.79751,2.10542 -2.45632,3.17408 -4.97644,3.17408 H 166.0772 Z m 63.35391,-40.27407 -14.00422,-39.81152 -13.98826,39.81152 z M 321.67069,500 c -14.14776,0 -25.2331,-3.46118 -33.25601,-10.39948 -7.92722,-6.93831 -11.88285,-17.38564 -11.88285,-31.3739 v -61.5356 c 0,-1.11651 0.35091,-2.00971 1.05271,-2.71152 a 3.9875319,3.9875319 0 0 1 2.71152,-1.05271 h 19.41131 c 1.10056,0 2.00971,0.35091 2.71152,1.05271 0.79751,0.70181 1.19626,1.59501 1.19626,2.71152 v 61.39204 c 0,6.53956 1.49931,11.4522 4.51389,14.76982 3.11027,3.22193 7.57631,4.83289 13.3981,4.83289 5.71015,0 10.12833,-1.65881 13.23861,-4.97644 3.11027,-3.31763 4.65744,-8.19836 4.65744,-14.62627 v -61.39204 c 0,-1.11651 0.3509,-2.00971 1.05271,-2.71152 a 3.9875319,3.9875319 0 0 1 2.71152,-1.05271 h 19.55485 c 1.11651,0 2.00972,0.35091 2.71153,1.05271 0.7018,0.70181 1.0527,1.59501 1.0527,2.71152 v 61.5356 c 0,13.97231 -4.00348,24.43559 -12.02639,31.3739 C 346.55289,496.53882 335.61111,500 321.67069,500 Z m 68.55365,-1.49931 c -1.00485,0 -1.91401,-0.3509 -2.71152,-1.06866 a 4.0194322,4.0194322 0 0 1 -1.05271,-2.71152 v -98.02949 c 0,-1.11651 0.35091,-2.00971 1.05271,-2.71152 0.79751,-0.7018 1.70667,-1.05271 2.71152,-1.05271 h 40.92803 c 13.14291,0 23.36694,3.01458 30.68805,9.04372 7.43276,5.93345 11.13319,14.38702 11.13319,25.34476 0,7.01805 -1.64287,13.0153 -4.94454,17.94389 a 31.740754,31.740754 0 0 1 -13.71711,11.30864 l 20.62351,37.1 c 0.30305,0.6061 0.44661,1.14841 0.44661,1.65881 a 3.1900256,3.1900256 0 0 1 -1.05271,2.26492 2.871023,2.871023 0 0 1 -2.10542,0.90916 h -20.00146 a 6.2843503,6.2843503 0 0 1 -6.1727,-4.08323 l -17.16234,-33.17627 h -15.34402 v 33.49527 c 0,1.10056 -0.39875,1.99376 -1.19626,2.71152 -0.7018,0.70181 -1.59501,1.05271 -2.71152,1.05271 h -19.42726 z m 40.62498,-58.68052 c 4.62554,0 8.13456,-1.10056 10.52708,-3.31763 2.40847,-2.31277 3.62068,-5.47089 3.62068,-9.49032 0,-4.01944 -1.21221,-7.19351 -3.62068,-9.50628 -2.29681,-2.40847 -5.80584,-3.62068 -10.52708,-3.62068 h -17.30589 v 25.93491 z m 63.40176,58.68052 a 3.9875319,3.9875319 0 0 1 -2.71152,-1.06866 4.0194322,4.0194322 0 0 1 -1.03676,-2.71152 v -98.02949 c 0,-1.11651 0.3509,-2.00971 1.05271,-2.71152 a 3.9875319,3.9875319 0 0 1 2.71152,-1.05271 h 20.14501 c 1.11651,0 2.00971,0.35091 2.71152,1.05271 0.79751,0.70181 1.21221,1.59501 1.21221,2.71152 v 98.02949 c 0,1.11651 -0.39875,2.00971 -1.21221,2.71152 -0.70181,0.71776 -1.59501,1.06866 -2.71152,1.06866 z"
     fill="#2f2f2f"
     id="path1"
     style="stroke-width:1.59501" />
  <g
     id="g5"
     transform="matrix(2.6082106,0,0,2.6082106,138.80814,-1.0693663)">
    <path
       d="M 85.76,49.92 A 13.1,13.1 0 0 1 72.62,63 13.1,13.1 0 0 1 59.48,49.92 13.1,13.1 0 0 1 72.62,36.85 13.1,13.1 0 0 1 85.76,49.92 Z"
       fill="#ffc131"
       id="path2" />
    <path
       d="M 63.74,86.66 A 13.1,13.1 0 0 1 50.6,99.73 13.1,13.1 0 0 1 37.45,86.66 13.1,13.1 0 0 1 50.6,73.58 13.1,13.1 0 0 1 63.74,86.66 Z"
       fill="#24c8db"
       id="path3" />
    <path
       d="M 40.58,38.15 C 17.9,42.77 0.84,62.73 0.84,86.65 0.84,114 23.12,136.16 50.6,136.16 A 49.75,49.75 0 0 0 98.11,101.38 57.88,57.88 0 0 1 79.08,106.93 35.02,35.02 0 0 1 50.6,121.5 34.93,34.93 0 0 1 15.58,86.66 34.87,34.87 0 0 1 38.55,53.93 34.8,34.8 0 0 1 40.58,38.15 Z"
       fill="#24c8db"
       id="path4" />
    <path
       fill-rule="evenodd"
       clip-rule="evenodd"
       d="M 82.64,98.43 C 105.31,93.82 122.38,73.85 122.38,49.93 122.38,22.57 100.1,0.41 72.62,0.41 A 49.75,49.75 0 0 0 25.11,35.2 57.87,57.87 0 0 1 44.14,29.65 35.03,35.03 0 0 1 72.62,15.08 34.93,34.93 0 0 1 107.64,49.92 34.87,34.87 0 0 1 84.67,82.65 34.8,34.8 0 0 1 82.64,98.43 Z"
       fill="#ffc131"
       id="path5" />
  </g>
</svg>
