<?xml version="1.0" encoding="UTF-8" standalone="no"?>
<svg
   id="Logo"
   width="1600"
   height="400"
   viewBox="0 0 1600 400"
   version="1.1"
   sodipodi:docname="WebGPU_Logo.svg"
   inkscape:version="1.4.2 (f4327f4, 2025-05-13)"
   xmlns:inkscape="http://www.inkscape.org/namespaces/inkscape"
   xmlns:sodipodi="http://sodipodi.sourceforge.net/DTD/sodipodi-0.dtd"
   xmlns="http://www.w3.org/2000/svg"
   xmlns:svg="http://www.w3.org/2000/svg">
  <sodipodi:namedview
     id="namedview1"
     pagecolor="#ffffff"
     bordercolor="#000000"
     borderopacity="0.25"
     inkscape:showpageshadow="2"
     inkscape:pageopacity="0.0"
     inkscape:pagecheckerboard="0"
     inkscape:deskcolor="#d1d1d1"
     inkscape:zoom="0.1681465"
     inkscape:cx="-26.762377"
     inkscape:cy="490.64358"
     inkscape:window-width="1920"
     inkscape:window-height="991"
     inkscape:window-x="-9"
     inkscape:window-y="-9"
     inkscape:window-maximized="1"
     inkscape:current-layer="Logo" />
  <defs
     id="defs1">
    <style
       id="style1">
      .cls-1, .cls-2, .cls-3, .cls-4, .cls-5 {
        fill-rule: evenodd;
        stroke-linejoin: round;
      }

      .cls-6 {
        fill-rule: evenodd;
      }

      .cls-1 {
        fill: #005a9c;
        stroke: #005a9c;
      }

      .cls-2 {
        fill: #0066b0;
        stroke: #0066b0;
      }

      .cls-3 {
        fill: #0076cc;
        stroke: #0076cc;
      }

      .cls-4 {
        fill: #0086e8;
        stroke: #0086e8;
      }

      .cls-5 {
        fill: #0093ff;
        stroke: #0093ff;
      }
    </style>
  </defs>
  <g
     id="g1"
     transform="matrix(2.0062194,0,0,2.0062194,-103.65241,-72.543589)">
    <path
       id="Triangle_4"
       data-name="Triangle 4"
       class="cls-4"
       d="M 298.4,134.84 273.8,92.231 h 49.269 z" />
    <path
       id="Triangle_5"
       data-name="Triangle 5"
       class="cls-5"
       d="m 298.4,49.619 -24.6,42.609 h 49.269 z" />
    <path
       id="Triangle_3"
       data-name="Triangle 3"
       class="cls-3"
       d="m 249.2,220.06 -49.2,-85.218 98.4,-8.1e-4 z" />
    <path
       id="Triangle_2"
       data-name="Triangle 2"
       class="cls-2"
       d="m 249.2,49.619 -49.2,85.218 98.4,-8.1e-4 z" />
    <path
       id="Triangle_1"
       data-name="Triangle 1"
       class="cls-1"
       d="M 150.8,220.06 52.4,49.62 h 196.8 z" />
    <path
       id="WebGPU"
       class="cls-6"
       d="m 397.927,170 a 46.383,46.383 0 0 0 -5.459,-22.594 39.579,39.579 0 0 0 -15.539,-15.706 46.217,46.217 0 0 0 -23.182,-5.711 47.758,47.758 0 0 0 -23.77,5.8 40.1,40.1 0 0 0 -16.042,16.547 q -5.714,10.752 -5.712,25.029 0.002,14.277 5.88,25.114 a 41.6,41.6 0 0 0 16.21,16.714 46.512,46.512 0 0 0 23.434,5.88 q 16.461,0 27.55,-8.315 a 39.574,39.574 0 0 0 14.782,-21.586 h -16.462 a 24.465,24.465 0 0 1 -9.323,12.347 q -6.639,4.621 -16.547,4.619 a 29.643,29.643 0 0 1 -20.578,-7.643 q -8.484,-7.642 -9.323,-21.25 h 73.577 a 89.923,89.923 0 0 0 0.5,-9.239 v 0 z m -15.791,-3.192 h -58.122 q 1.173,-13.1 9.323,-20.494 a 28.334,28.334 0 0 1 19.738,-7.391 32.751,32.751 0 0 1 14.7,3.275 25.147,25.147 0 0 1 10.5,9.575 28.21,28.21 0 0 1 3.863,15.035 v 0 z m 51.235,-22.174 V 95.246 h -15.287 v 124.308 h 15.287 v -16.966 a 35.4,35.4 0 0 0 13.523,13.27 40.941,40.941 0 0 0 20.914,5.208 41.875,41.875 0 0 0 37.964,-23.014 52.851,52.851 0 0 0 5.712,-24.862 q 0,-14.111 -5.712,-24.777 a 41.653,41.653 0 0 0 -15.622,-16.547 42.965,42.965 0 0 0 -22.342,-5.879 40.763,40.763 0 0 0 -20.662,5.207 36.146,36.146 0 0 0 -13.775,13.439 v 0 z m 62.49,28.557 a 38.312,38.312 0 0 1 -4.2,18.4 29.535,29.535 0 0 1 -11.338,11.927 30.887,30.887 0 0 1 -15.707,4.115 30.558,30.558 0 0 1 -15.539,-4.115 30.072,30.072 0 0 1 -11.422,-11.927 40.557,40.557 0 0 1 0,-36.285 30.092,30.092 0 0 1 11.422,-11.927 30.578,30.578 0 0 1 15.539,-4.115 31.4,31.4 0 0 1 15.707,4.031 29.1,29.1 0 0 1 11.338,11.759 37.449,37.449 0 0 1 4.2,18.142 v 0 z M 638.647,136.4 a 52.884,52.884 0 0 0 -20.914,-26.038 q -14.362,-9.236 -33.009,-9.239 a 59.092,59.092 0 0 0 -29.733,7.643 55.959,55.959 0 0 0 -21.25,21.334 61.09,61.09 0 0 0 -7.812,30.826 60.623,60.623 0 0 0 7.812,30.741 56.1,56.1 0 0 0 21.25,21.25 59.062,59.062 0 0 0 29.733,7.643 56.956,56.956 0 0 0 28.053,-6.971 56.042,56.042 0 0 0 20.323,-18.981 58.17,58.17 0 0 0 9.071,-26.457 v -11.759 h -62.99 v 12.431 h 46.7 q -1.849,17.472 -12.935,27.717 -11.086,10.245 -28.221,10.247 a 43.634,43.634 0 0 1 -22.09,-5.627 39.861,39.861 0 0 1 -15.454,-16.043 q -5.631,-10.413 -5.628,-24.189 0.003,-13.776 5.628,-24.274 a 39.769,39.769 0 0 1 15.454,-16.127 43.654,43.654 0 0 1 22.09,-5.627 40.52,40.52 0 0 1 21.5,5.627 36.445,36.445 0 0 1 14.112,15.873 z m 101.967,0.336 q 0,-15.118 -10.332,-24.694 -10.332,-9.576 -30.153,-9.575 h -37.8 v 117.087 h 15.286 v -48.883 h 22.51 q 20.493,0 30.489,-9.659 9.996,-9.659 10,-24.274 v 0 z m -40.485,21.334 h -22.51 v -43 h 22.51 q 24.859,0 24.862,21.67 0,10.248 -6.047,15.79 -6.047,5.542 -18.815,5.544 v 0 z m 59.13,-55.6 v 73.913 q 0,14.614 5.795,24.61 a 36.391,36.391 0 0 0 15.791,14.866 54.05,54.05 0 0 0 44.852,0 36.911,36.911 0 0 0 15.874,-14.866 q 5.878,-9.993 5.88,-24.61 v -73.914 h -15.287 v 74.081 q 0,15.623 -7.643,23.182 -7.643,7.559 -21.082,7.559 -13.606,0 -21.25,-7.559 -7.644,-7.559 -7.643,-23.182 v -74.081 h -15.287 z"
       style="stroke:#f9f9f9;stroke-width:3;stroke-dasharray:none" />
  </g>
</svg>
